<svg id="Capa_1" enable-background="new 0 0 512 512" height="512" viewBox="0 0 512 512" width="512" xmlns="http://www.w3.org/2000/svg"><path d="m156.504 512h-42.439c-5.523 0-10-4.477-10-10v-23.301h62.439v23.301c0 5.523-4.477 10-10 10z" fill="#454545"/><path d="m354.455 512h42.439c5.523 0 10-4.477 10-10v-23.301h-62.439v23.301c0 5.523 4.477 10 10 10z" fill="#454545"/><path d="m304.815 7.742 117.511 458.096c1.672 6.517-3.251 12.862-9.979 12.862h-156.347-156.348c-6.728 0-11.651-6.344-9.979-12.862l117.512-458.096c1.168-4.556 5.275-7.742 9.978-7.742h77.673c4.704 0 8.811 3.186 9.979 7.742z" fill="#595959"/><path d="m422.327 465.838-117.512-458.096c-1.168-4.556-5.275-7.742-9.978-7.742h-17.333c4.704 0 8.81 3.186 9.979 7.742l85.574 333.594c1.623 6.326-3.155 12.485-9.686 12.485h-244.963l-28.735 112.017c-1.672 6.517 3.251 12.862 9.979 12.862h312.696c6.728-.001 11.651-6.345 9.979-12.862z" fill="#454545"/><g fill="#c6c1c8"><path d="m292.423 47.502h-20.813c-4.267 0-7.726-3.459-7.726-7.726s3.459-7.726 7.726-7.726h20.813c4.267 0 7.726 3.459 7.726 7.726s-3.459 7.726-7.726 7.726z"/><path d="m292.423 89.127h-20.813c-4.267 0-7.726-3.459-7.726-7.726s3.459-7.726 7.726-7.726h20.813c4.267 0 7.726 3.459 7.726 7.726s-3.459 7.726-7.726 7.726z"/><path d="m292.423 130.754h-20.813c-4.267 0-7.726-3.459-7.726-7.726s3.459-7.726 7.726-7.726h20.813c4.267 0 7.726 3.459 7.726 7.726 0 4.266-3.459 7.726-7.726 7.726z"/><path d="m292.423 172.379h-20.813c-4.267 0-7.726-3.459-7.726-7.726s3.459-7.726 7.726-7.726h20.813c4.267 0 7.726 3.459 7.726 7.726s-3.459 7.726-7.726 7.726z"/><path d="m292.423 214.006h-20.813c-4.267 0-7.726-3.459-7.726-7.726s3.459-7.726 7.726-7.726h20.813c4.267 0 7.726 3.459 7.726 7.726s-3.459 7.726-7.726 7.726z"/><path d="m288.26 255.631h-16.65c-4.267 0-7.726-3.459-7.726-7.726s3.459-7.726 7.726-7.726h16.65c4.267 0 7.726 3.459 7.726 7.726s-3.459 7.726-7.726 7.726z"/><path d="m240.39 47.502h-20.813c-4.267 0-7.726-3.459-7.726-7.726s3.459-7.726 7.726-7.726h20.813c4.267 0 7.726 3.459 7.726 7.726s-3.459 7.726-7.726 7.726z"/><path d="m240.39 89.127h-20.813c-4.267 0-7.726-3.459-7.726-7.726s3.459-7.726 7.726-7.726h20.813c4.267 0 7.726 3.459 7.726 7.726.001 4.267-3.459 7.726-7.726 7.726z"/><path d="m240.39 130.754h-20.813c-4.267 0-7.726-3.459-7.726-7.726s3.459-7.726 7.726-7.726h20.813c4.267 0 7.726 3.459 7.726 7.726.001 4.266-3.459 7.726-7.726 7.726z"/><path d="m240.39 172.379h-20.813c-4.267 0-7.726-3.459-7.726-7.726s3.459-7.726 7.726-7.726h20.813c4.267 0 7.726 3.459 7.726 7.726.001 4.267-3.459 7.726-7.726 7.726z"/><path d="m240.39 214.006h-20.813c-4.267 0-7.726-3.459-7.726-7.726s3.459-7.726 7.726-7.726h20.813c4.267 0 7.726 3.459 7.726 7.726s-3.459 7.726-7.726 7.726z"/><path d="m240.39 255.631h-16.65c-4.267 0-7.726-3.459-7.726-7.726s3.459-7.726 7.726-7.726h16.65c4.267 0 7.726 3.459 7.726 7.726.001 4.267-3.459 7.726-7.726 7.726z"/></g><path d="m240.39 0h31.22v374.634h-31.22z" fill="#dfdde2"/><path d="m240.39 353.821h31.219v20.813h-31.219z" fill="#c6c1c8"/><path d="m117.118 147.739c-2.641 0-5.214-1.355-6.656-3.792l-15.371-25.971c-2.174-3.672-.959-8.411 2.714-10.584 3.672-2.174 8.412-.958 10.584 2.714l15.371 25.971c2.174 3.672.959 8.411-2.714 10.584-1.234.731-2.59 1.078-3.928 1.078z" fill="#c6c1c8"/><path d="m259.99 388.195c-2.641 0-5.214-1.354-6.656-3.792l-117.427-197.476c-2.174-3.672-.959-8.411 2.713-10.585 3.674-2.174 8.411-.958 10.585 2.713l117.426 197.476c2.174 3.672.959 8.411-2.713 10.585-1.235.731-2.591 1.079-3.928 1.079z" fill="#c6c1c8"/><path d="m155.45 175.363-25.774 15.256c-4.753 2.813-10.886 1.241-13.699-3.512l-15.256-25.774c-2.813-4.753-1.241-10.886 3.512-13.699l25.774-15.256c4.753-2.813 10.886-1.241 13.699 3.512l15.256 25.774c2.813 4.753 1.24 10.886-3.512 13.699z" fill="#afaab4"/><path d="m129.746 132.532-3.006 1.779 5.582 9.43c7.085 11.969 3.125 27.415-8.844 34.5l-9.442 5.589 1.786 3.018c2.898 4.896 9.217 6.516 14.113 3.618l25.255-14.949c4.896-2.898 6.516-9.217 3.618-14.113l-14.949-25.255c-2.898-4.896-9.217-6.515-14.113-3.617z" fill="#a298a5"/><path d="m422.327 465.838-23.396-91.203h-285.862l-23.396 91.203c-1.672 6.517 3.251 12.862 9.979 12.862h156.348 156.348c6.728-.001 11.651-6.345 9.979-12.862z" fill="#c6865c"/><path d="m398.931 374.634h-19.772l26.695 104.065h6.494c6.728 0 11.651-6.344 9.979-12.862z" fill="#b16e3d"/></svg>